<?xml version="1.0" standalone="no"?>
<!DOCTYPE svg PUBLIC "-//W3C//DTD SVG 20010904//EN"
 "http://www.w3.org/TR/2001/REC-SVG-20010904/DTD/svg10.dtd">
<svg version="1.0" xmlns="http://www.w3.org/2000/svg"
 width="500.000000pt" height="500.000000pt" viewBox="0 0 500.000000 500.000000"
 preserveAspectRatio="xMidYMid meet">
<metadata>
Created by potrace 1.11, written by Peter Selinger 2001-2013
</metadata>
<g transform="translate(0.000000,500.000000) scale(0.100000,-0.100000)"
fill="#000000" stroke="none">
<path d="M2163 4590 c-232 -139 -412 -323 -511 -523 -188 -378 -155 -850 83
-1182 116 -163 323 -341 540 -465 101 -58 345 -206 372 -226 17 -13 34 -24 38
-24 5 0 64 -39 75 -50 3 -3 30 -24 61 -47 60 -46 159 -146 201 -203 158 -216
205 -553 113 -826 -61 -185 -161 -332 -352 -519 -51 -50 -93 -99 -93 -108 0
-23 35 -57 58 -57 11 0 48 18 83 41 235 151 407 335 518 556 28 56 78 208 86
263 4 25 10 65 15 90 9 48 6 318 -4 360 -3 14 -11 48 -17 75 -31 141 -110 311
-196 426 -134 176 -303 313 -648 525 -88 54 -162 101 -165 104 -3 3 -41 29
-85 59 -102 69 -124 87 -213 174 -178 174 -262 377 -267 645 -4 269 109 515
360 777 103 108 118 135 90 165 -27 30 -52 25 -142 -30z"/>
<path d="M2696 4621 c-25 -27 -13 -55 50 -121 66 -69 98 -106 132 -150 15 -19
29 -37 32 -40 22 -20 86 -119 114 -176 92 -187 125 -377 103 -594 -13 -128
-76 -321 -153 -470 -39 -74 -44 -134 -16 -182 43 -74 144 -94 211 -40 109 88
215 309 246 512 2 19 9 62 14 95 10 62 8 315 -3 333 -3 5 -8 27 -12 48 -12 86
-81 253 -142 348 -109 170 -300 339 -489 435 -52 26 -65 26 -87 2z"/>
<path d="M1847 2169 c-83 -43 -212 -258 -241 -405 -3 -10 -11 -50 -19 -89 -26
-116 -29 -146 -32 -255 -11 -426 221 -805 628 -1024 76 -40 89 -43 111 -20 27
27 18 54 -42 117 -139 147 -233 271 -286 375 -35 70 -83 215 -92 277 -3 28 -8
59 -10 70 -7 33 -6 196 2 255 16 134 65 283 146 444 45 90 51 147 21 198 -37
64 -122 89 -186 57z"/>
</g>
</svg>
