<?xml version="1.0" ?><!DOCTYPE svg  PUBLIC '-//W3C//DTD SVG 1.1//EN'  'http://www.w3.org/Graphics/SVG/1.1/DTD/svg11.dtd'><svg enable-background="new 0 0 128 128" id="Слой_1" version="1.1" viewBox="0 0 128 128" xml:space="preserve" xmlns="http://www.w3.org/2000/svg" xmlns:xlink="http://www.w3.org/1999/xlink"><g><path d="M96.602,104.167c-0.552,0-1,0.448-1,1v3.773c0,2.238-1.821,4.06-4.06,4.06H36.459   c-2.239,0-4.06-1.821-4.06-4.06V28.779c0-2.238,1.821-4.06,4.06-4.06h14.213l-0.807,1.422c-0.05,0.088-0.086,0.184-0.108,0.283   c-0.271,1.259,0.122,2.081,0.499,2.548c0.667,0.827,1.839,1.264,3.389,1.264h20.713c1.55,0,2.721-0.437,3.389-1.264   c0.377-0.467,0.771-1.289,0.499-2.548c-0.021-0.099-0.058-0.194-0.108-0.283l-0.808-1.422h14.213c2.239,0,4.06,1.821,4.06,4.06V83   c0,0.552,0.448,1,1,1s1-0.448,1-1V28.779c0-3.341-2.719-6.06-6.06-6.06H76.206c-0.004,0-0.007,0.002-0.011,0.002l-0.355-0.625   c-0.742-1.428-1.773-2.889-3.798-2.889h-3.928v-2.26c0-2.177-1.798-3.948-4.009-3.948s-4.009,1.771-4.009,3.948v2.26h-4.137   c-1.98,0-2.993,1.383-3.78,2.856l-0.372,0.655H36.459c-3.341,0-6.06,2.718-6.06,6.06v80.162c0,3.341,2.719,6.06,6.06,6.06h55.083   c3.341,0,6.06-2.718,6.06-6.06v-3.773C97.602,104.615,97.154,104.167,96.602,104.167z M53.931,23.029   c0.823-1.54,1.329-1.821,2.028-1.821h5.137c0.552,0,1-0.448,1-1v-3.26c0-1.074,0.901-1.948,2.009-1.948s2.009,0.874,2.009,1.948   v3.26c0,0.552,0.448,1,1,1h4.928c0.686,0,1.236,0.296,2.041,1.843l2.232,3.933c0.074,0.485-0.074,0.669-0.125,0.732   c-0.263,0.326-0.948,0.52-1.833,0.52H53.644c-0.885,0-1.57-0.194-1.833-0.52c-0.052-0.063-0.2-0.248-0.125-0.732L53.931,23.029z" fill="#323638"/><path d="M46.334,38c0-0.552-0.448-1-1-1h-8c-0.552,0-1,0.448-1,1v8c0,0.552,0.448,1,1,1h8c0.552,0,1-0.448,1-1V38z    M44.334,45h-6v-6h6V45z" fill="#323638"/><path d="M46.334,52c0-0.552-0.448-1-1-1h-8c-0.552,0-1,0.448-1,1v8c0,0.552,0.448,1,1,1h8c0.552,0,1-0.448,1-1V52z    M44.334,59h-6v-6h6V59z" fill="#323638"/><path d="M45.334,65h-8c-0.552,0-1,0.448-1,1v8c0,0.552,0.448,1,1,1h8c0.552,0,1-0.448,1-1v-8   C46.334,65.448,45.886,65,45.334,65z M44.334,73h-6v-6h6V73z" fill="#323638"/><path d="M87.667,69h-35c-0.552,0-1,0.448-1,1s0.448,1,1,1h35c0.552,0,1-0.448,1-1S88.219,69,87.667,69z" fill="#323638"/><path d="M87.667,57h-35c-0.552,0-1,0.448-1,1s0.448,1,1,1h35c0.552,0,1-0.448,1-1S88.219,57,87.667,57z" fill="#323638"/><path d="M87.667,41h-35c-0.552,0-1,0.448-1,1s0.448,1,1,1h35c0.552,0,1-0.448,1-1S88.219,41,87.667,41z" fill="#323638"/><path d="M110.83,76.175c-0.431-0.345-1.061-0.275-1.406,0.156L89.318,101.45L76.982,86.23   c-0.348-0.43-0.978-0.495-1.407-0.147c-0.429,0.348-0.495,0.978-0.147,1.407l13.118,16.184c0.021,0.026,0.052,0.035,0.074,0.058   c0.029,0.029,0.045,0.067,0.078,0.093c0.043,0.034,0.093,0.051,0.14,0.077c0.036,0.02,0.068,0.043,0.106,0.058   c0.123,0.051,0.25,0.084,0.379,0.084c0,0,0,0,0,0s0,0,0,0c0.13,0,0.258-0.034,0.382-0.085c0.038-0.016,0.07-0.039,0.106-0.059   c0.047-0.027,0.098-0.044,0.142-0.079c0.033-0.027,0.049-0.064,0.078-0.094c0.022-0.023,0.053-0.032,0.073-0.058l20.882-26.088   C111.331,77.15,111.261,76.521,110.83,76.175z" fill="#323638"/></g></svg>