<?xml version="1.0" encoding="UTF-8" standalone="no"?>
<!DOCTYPE svg PUBLIC "-//W3C//DTD SVG 1.1//EN" "http://www.w3.org/Graphics/SVG/1.1/DTD/svg11.dtd">
<svg width="100%" height="100%" viewBox="0 0 80 80" version="1.1" xmlns="http://www.w3.org/2000/svg" xmlns:xlink="http://www.w3.org/1999/xlink" xml:space="preserve" xmlns:serif="http://www.serif.com/" style="fill-rule:evenodd;clip-rule:evenodd;stroke-linejoin:round;stroke-miterlimit:1.41421;">
    <rect id="Artboard1" x="0" y="0" width="80" height="80" style="fill:none;"/>
    <clipPath id="_clip1">
        <rect id="Artboard11" serif:id="Artboard1" x="0" y="0" width="80" height="80"/>
    </clipPath>
    <g clip-path="url(#_clip1)">
        <g transform="matrix(1.21212,0,0,1.21212,-9.69697,-7.27273)">
            <circle cx="41" cy="39" r="33" style="fill:rgb(36,197,130);"/>
        </g>
        <g transform="matrix(1,0,0,1,-2,-2)">
            <path d="M62.278,27.767C62.877,27.867 63.03,27.971 63.307,28.169C64.378,28.933 64.687,30.4 63.591,31.591L38.591,56.591C37.7,57.412 36.303,57.414 35.409,56.591L21.409,42.591C20.718,41.84 20.771,41.552 20.752,41.093C20.678,39.317 23.12,38.055 24.591,39.409L37,51.818L60.546,28.283C61.27,27.719 61.282,27.685 62.278,27.767Z" style="fill:white;fill-rule:nonzero;"/>
        </g>
    </g>
</svg>
