<?xml version="1.0" encoding="utf-8"?>
<!-- Svg Vector Icons : http://www.onlinewebfonts.com/icon -->
<!DOCTYPE svg PUBLIC "-//W3C//DTD SVG 1.1//EN" "http://www.w3.org/Graphics/SVG/1.1/DTD/svg11.dtd">
<svg version="1.1" xmlns="http://www.w3.org/2000/svg" xmlns:xlink="http://www.w3.org/1999/xlink" x="0px" y="0px" viewBox="0 0 1000 1000" enable-background="new 0 0 1000 1000" xml:space="preserve">
<metadata> Svg Vector Icons : http://www.onlinewebfonts.com/icon </metadata>
<g><g transform="translate(0.000000,512.000000) scale(0.100000,-0.100000)"><path d="M4063,4959.4c-26.8-32.5-49.8-74.6-49.8-95.7c0-21.1,51.7-139.7,114.8-266l114.8-227.7l-1067.9-5.7c-1050.7-5.7-1067.9-5.7-1142.6-47.8c-105.3-55.5-225.8-189.5-266-294.7c-28.7-78.5-30.6-390.4-26.8-4256.3c5.7-4022.8,7.7-4174,42.1-4242.9c44-91.9,164.6-212.4,256.5-256.4c67-34.5,185.6-36.4,2939.6-42.1l2868.8-3.8l97.6,44c122.5,57.4,214.3,147.4,271.7,271.8l45.9,95.7V-206c0,4143.4-1.9,4162.5-40.2,4248.7c-47.8,105.3-153.1,218.2-256.5,273.7c-74.6,42.1-95.7,42.1-1106.2,51.7l-1029.6,9.6l155,206.7c122.5,166.5,153.1,222,153.1,273.7c0,118.7-120.6,193.3-237.3,149.3c-17.2-5.7-135.9-153.1-262.2-325.4L5406.5,4368h-396.2h-396.2l-141.6,289c-78.5,158.8-164.6,306.2-189.5,325.3C4212.2,5039.8,4122.3,5030.2,4063,4959.4z M4487.8,3874.3l84.2-160.8l-55.5-68.9c-93.8-120.6-120.6-172.2-151.2-290.9c-51.7-199,9.6-396.2,178-576.1c130.1-139.7,266-199,455.5-199c130.1,0,168.4,9.6,264.1,55.5c135.9,68.9,267.9,208.6,333,350.2c103.3,223.9,47.8,486.1-143.5,681.3c-134,137.8-248.8,189.5-436.3,200.9l-155,7.7l-42.1,84.2l-40.2,84.2l1542.5-3.8l1542.5-5.7l36.3-45.9c36.4-44,36.4-137.8,36.4-4197v-4151l-47.9-45.9l-45.9-47.9H4998.8H2154.9l-45.9,47.9l-47.8,45.9v4145.3c0,2897.5,5.7,4156.8,21,4183.6c11.5,21.1,38.3,45.9,61.2,55.5c23,9.6,541.6,15.3,1152.1,13.4l1110-3.8L4487.8,3874.3z M5199.8,3489.6c26.8-19.1,63.1-61.2,84.2-95.7c47.8-82.3,47.8-266-1.9-350.2c-44-78.5-179.9-149.3-283.2-149.3c-103.3,0-239.2,70.8-283.2,149.3c-51.7,88-49.8,348.3,1.9,348.3c9.6,0,44-61.2,80.4-134c78.5-164.6,114.8-199,204.8-199c49.8,0,80.4,13.4,112.9,53.6c63.2,72.7,57.4,141.6-23,302.4l-68.9,135.9l65.1-13.4C5123.2,3531.7,5173,3508.7,5199.8,3489.6z"/><path d="M3418,2188.2l-55.5-57.4l3.8-1531l5.7-1531l44-44l44-44h1538.7h1538.7l44,44l44,44V609.3v1542.5l-53.6,45.9l-53.6,45.9H4996.9H3473.5L3418,2188.2z M6305.9,613.1L6300.2-694l-151.2-5.7c-166.5-5.8-183.7,3.8-183.7,103.3c0,185.6-178,509.1-348.3,639.2c-45.9,36.3-90,70.8-99.5,78.5c-9.6,9.6,21.1,57.4,72.7,112.9c49.8,53.6,118.7,155,151.2,225.8c55.5,116.7,61.2,145.4,61.2,310c0,164.6-5.7,193.3-61.2,311.9c-162.7,342.6-539.7,558.8-861.2,495.7c-266-53.6-489.9-227.7-614.3-480.4c-67-135.9-70.8-155-70.8-325.4c0-166.5,5.7-195.2,61.2-312c32.5-70.8,101.4-172.2,151.2-225.8l89.9-95.7l-55.5-42.1c-195.2-147.3-354.1-388.5-392.3-599c-11.5-63.2-24.9-134-28.7-158.8c-7.7-42.1-15.3-44-166.5-38.3l-156.9,5.7l-5.7,1307.1l-3.8,1305.2h1311h1311L6305.9,613.1z M5157.7,1238.9c189.5-57.4,308.1-210.5,323.4-421c26.8-315.8-166.5-526.3-482.3-526.3c-315.8,0-509.1,210.5-482.3,526.3c15.3,204.8,122.5,350.2,304.3,413.4C4945.2,1275.3,5029.4,1277.2,5157.7,1238.9z M5240-85.4c78.5-24.9,132.1-61.2,220.1-149.3c118.7-116.8,162.7-206.7,185.7-377l11.5-72.7h-660.3h-660.3l11.5,72.7c30.6,179.9,72.7,260.3,189.5,377c70.8,70.8,151.2,128.2,202.9,147.4C4857.2-45.2,5107.9-43.3,5240-85.4z"/><path d="M3253.4-1721.7c-67-72.7-65.1-168.4,3.8-235.4l45.9-47.8h1695.6h1695.6l45.9,47.8c68.9,67,70.8,162.7,3.8,235.4l-38.3,42.1H4998.8H3291.7L3253.4-1721.7z"/><path d="M3284-2512.1c-67-36.3-97.6-124.4-70.8-200.9c40.2-118.7-34.5-114.8,1785.6-114.8c1758.8,0,1743.5,0,1777.9,86.1c19.1,51.7,11.5,151.2-13.4,183.7c-57.4,74.6-55.5,74.6-1768.4,74.6C3588.3-2485.4,3326.2-2489.2,3284-2512.1z"/><path d="M3280.2-3327.4c-21.1-11.5-47.8-49.8-63.2-86.1c-30.6-72.7-15.3-130.2,49.8-189.5c42.1-38.3,68.9-38.3,1733.9-38.3h1691.8l45.9,47.9c72.7,74.6,72.7,170.3,1.9,239.2l-45.9,47.9H5004.6C3839.1-3308.3,3303.2-3314,3280.2-3327.4z"/></g></g>
</svg>