<svg xmlns="http://www.w3.org/2000/svg" width="23.1" height="51" viewBox="0 0 23.1 51" style="fill:#ffffff;"><path d="M9.2 1.1c-1.8 1.8-3.5 3.7-4.4 5.9-.9 2.1-1.2 4.4-.7 6.6.4 2.2 1.4 4 3 5.6 1.6 1.6 3.7 2.8 5.9 4.2 2.2 1.4 4.7 2.9 6.7 5.2 2 2.3 3.3 5.4 3.4 8.3.2 2.9-.5 6-2.1 8.4-1.5 2.5-3.7 4.2-6.1 5.6-.3.2-.7.1-.9-.2-.2-.3-.1-.6.1-.9 1.9-1.7 3.6-3.6 4.6-5.8 1-2.2 1.3-4.5.8-6.8-.4-2.3-1.4-4.2-3.1-5.7-1.6-1.5-3.7-2.8-6-4.1-2.2-1.3-4.7-2.7-6.8-5-1-1.1-2-2.4-2.6-3.9-.6-1.4-1-3-1.1-4.5-.2-3 .5-6.1 2.2-8.6 1.6-2.5 3.9-4.2 6.3-5.5.3-.2.7 0 .9.3.2.4.1.7-.1.9zM14.6.1c1.7.8 3.3 1.9 4.7 3.4.7.7 1.3 1.5 1.8 2.4.5.9 1 2 1.3 3 .3 1.1.4 2.2.4 3.3 0 1.1-.3 6.5-3.3 9.1-.7.6-1.9.4-2.4-.4-.4-.6-.4-1.3-.1-1.9v-.1c.8-1.5 4.1-7.4.3-13.8-1-1.5-2.2-2.8-3.5-4.1-.2-.2-.2-.6 0-.9.3-.1.6-.1.8 0zM8.5 50.9c-1.7-.8-3.3-1.9-4.7-3.4-.7-.7-1.3-1.5-1.8-2.5-.5-.9-1-2-1.3-3-.3-1.1-.4-2.2-.4-3.3 0-1.1.3-6.5 3.3-9.1.7-.6 1.8-.4 2.4.4.4.6.4 1.3.1 1.9l-.1.1c-.8 1.5-4.1 7.4-.3 13.8 1 1.5 2.2 2.8 3.5 4.1.2.2.2.6 0 .9-.2.2-.4.2-.7.1z"/></svg>